<?xml version="1.0" encoding="utf-8" ?>
<svg baseProfile="full" height="5000px" version="1.1" width="5000px" xmlns="http://www.w3.org/2000/svg" xmlns:ev="http://www.w3.org/2001/xml-events" xmlns:xlink="http://www.w3.org/1999/xlink"><defs><clipPath id="border_clip"><rect height="5000" width="5000" x="0" y="0" /></clipPath></defs><polyline clip-path="url(#border_clip)" fill="none" points="2500.5,2500.5 2490.5,2500.5" stroke="black" stroke-linecap="round" stroke-width="1" /><polyline clip-path="url(#border_clip)" fill="none" points="2495.5,2498.5 2495.5,2500.5 2490.5,2500.5" stroke="black" stroke-linecap="round" stroke-width="1" /><polyline clip-path="url(#border_clip)" fill="none" points="2490.5,2493.5 2491.169872981078,2496.0 2493.0,2497.830127018922 2495.5,2498.5 2498.0,2497.830127018922 2499.830127018922,2496.0 2500.5,2493.5" stroke="black" stroke-linecap="round" stroke-width="1" /><polyline clip-path="url(#border_clip)" fill="none" points="2498.5,2502.5 2498.5,2504.5" stroke="black" stroke-linecap="round" stroke-width="1" /><polyline clip-path="url(#border_clip)" fill="none" points="2498.5,2502.5 2490.5,2502.5" stroke="black" stroke-linecap="round" stroke-width="1" /><polyline clip-path="url(#border_clip)" fill="none" points="2498.5,2505.5 2498.5,2505.5" stroke="black" stroke-linecap="round" stroke-width="1" /><polyline clip-path="url(#border_clip)" fill="none" points="2495.5,2493.5 2495.5,2483.5" stroke="black" stroke-linecap="round" stroke-width="1" /><polyline clip-path="url(#border_clip)" fill="none" points="2497.5,2491.5 2497.5,2485.5" stroke="black" stroke-linecap="round" stroke-width="1" /><polyline clip-path="url(#border_clip)" fill="none" points="2490.5,2500.5 2490.5,2500.5" stroke="#ffffff" stroke-linecap="round" stroke-width="2.0" /><polyline clip-path="url(#border_clip)" fill="none" points="2490.5,2499.5 2490.0,2499.6339745962155 2489.6339745962155,2500.0 2489.5,2500.5 2489.6339745962155,2501.0 2490.0,2501.3660254037845 2490.5,2501.5 2491.0,2501.3660254037845 2491.3660254037845,2501.0 2491.5,2500.5 2491.3660254037845,2500.0 2491.0,2499.6339745962155 2490.5,2499.5" stroke="black" stroke-linecap="round" stroke-width="1" /><polyline clip-path="url(#border_clip)" fill="none" points="2490.5,2500.5 2480.5,2500.5" stroke="black" stroke-linecap="round" stroke-width="1" /><polyline clip-path="url(#border_clip)" fill="none" points="2485.5,2498.5 2485.5,2500.5 2480.5,2500.5" stroke="black" stroke-linecap="round" stroke-width="1" /><polyline clip-path="url(#border_clip)" fill="none" points="2480.5,2493.5 2481.169872981078,2496.0 2483.0,2497.830127018922 2485.5,2498.5 2488.0,2497.830127018922 2489.830127018922,2496.0 2490.5,2493.5" stroke="black" stroke-linecap="round" stroke-width="1" /><polyline clip-path="url(#border_clip)" fill="none" points="2490.5,2502.5 2486.5,2502.5 2486.5,2504.5" stroke="black" stroke-linecap="round" stroke-width="1" /><polyline clip-path="url(#border_clip)" fill="none" points="2484.5,2502.5 2484.5,2504.5" stroke="black" stroke-linecap="round" stroke-width="1" /><polyline clip-path="url(#border_clip)" fill="none" points="2484.5,2502.5 2480.5,2502.5" stroke="black" stroke-linecap="round" stroke-width="1" /><polyline clip-path="url(#border_clip)" fill="none" points="2490.5,2491.5 2482.5,2491.5 2482.5,2489.5" stroke="black" stroke-linecap="round" stroke-width="1" /><polyline clip-path="url(#border_clip)" fill="none" points="2482.5,2488.5 2482.5,2488.5" stroke="black" stroke-linecap="round" stroke-width="1" /><polyline clip-path="url(#border_clip)" fill="none" points="2480.5,2500.5 2480.5,2500.5" stroke="#ffffff" stroke-linecap="round" stroke-width="2.0" /><polyline clip-path="url(#border_clip)" fill="none" points="2480.5,2499.5 2480.0,2499.6339745962155 2479.6339745962155,2500.0 2479.5,2500.5 2479.6339745962155,2501.0 2480.0,2501.3660254037845 2480.5,2501.5 2481.0,2501.3660254037845 2481.3660254037845,2501.0 2481.5,2500.5 2481.3660254037845,2500.0 2481.0,2499.6339745962155 2480.5,2499.5" stroke="black" stroke-linecap="round" stroke-width="1" /></svg>